# MagicaVoxel @ Ephtracy

# material
mtllib house3.mtl
usemtl palette

# normals
vn -1 0 0
vn 1 0 0
vn 0 0 1
vn 0 0 -1
vn 0 -1 0
vn 0 1 0

# texcoords
vt 0.541016 0.5
vt 0.658203 0.5
vt 0.927734 0.5
vt 0.962891 0.5
vt 0.966797 0.5
vt 0.982422 0.5
vt 0.986328 0.5
vt 0.990234 0.5

# verts
v -63 0 62
v -63 0 -8
v -63 1 62
v -63 1 -8
v -63 15 62
v -63 15 -8
v -63 38 63
v -63 38 62
v -63 38 -8
v -63 58 63
v -63 58 62
v -63 58 -8
v -2 1 61
v -2 1 56
v -2 15 61
v -2 15 56
v -2 38 61
v -2 38 60
v -2 38 56
v -2 38 -8
v -2 38 -51
v -2 57 60
v -2 57 56
v -2 58 -8
v -2 58 -51
v -1 0 -8
v -1 0 -51
v -1 1 -8
v -1 1 -51
v -1 15 -8
v -1 15 -51
v -1 38 -8
v -1 38 -51
v 30 1 57
v 30 1 56
v 30 15 57
v 30 15 56
v 30 28 57
v 30 28 56
v 38 1 56
v 38 1 -50
v 38 15 56
v 38 15 -50
v 38 38 56
v 38 38 -49
v 38 38 -50
v 38 57 56
v 38 57 -49
v 40 0 63
v 40 0 10
v 40 1 63
v 40 1 62
v 40 1 10
v 40 24 63
v 40 24 62
v 40 24 10
v 40 38 57
v 40 38 10
v 40 42 63
v 40 42 57
v 40 52 63
v 40 52 57
v 61 1 50
v 61 1 11
v 61 24 50
v 61 24 11
v 61 42 50
v 61 42 11
v 61 51 50
v 61 51 11
v -62 1 61
v -62 1 -7
v -62 15 61
v -62 15 -7
v -62 38 61
v -62 38 60
v -62 38 -6
v -62 38 -7
v -62 57 60
v -62 57 -6
v -1 0 62
v -1 0 57
v -1 1 62
v -1 1 57
v -1 15 62
v -1 15 57
v -1 38 63
v -1 38 62
v -1 38 57
v -1 58 63
v -1 58 62
v -1 58 57
v 0 1 -7
v 0 1 -50
v 0 15 -7
v 0 15 -8
v 0 15 -50
v 0 38 -6
v 0 38 -7
v 0 38 -8
v 0 38 -49
v 0 38 -50
v 0 57 -6
v 0 57 -7
v 0 57 -49
v 10 1 57
v 10 1 56
v 10 15 57
v 10 15 56
v 10 28 57
v 10 28 56
v 39 0 57
v 39 0 -51
v 39 1 57
v 39 1 -51
v 39 15 57
v 39 15 -51
v 39 38 57
v 39 38 -51
v 40 38 10
v 40 38 -51
v 40 42 10
v 40 52 57
v 40 52 10
v 40 58 57
v 40 58 -51
v 41 1 62
v 41 1 11
v 41 24 62
v 41 24 11
v 41 42 62
v 41 42 11
v 41 51 62
v 41 51 11
v 52 1 63
v 52 1 62
v 52 24 63
v 52 24 62
v 52 42 63
v 52 42 62
v 52 51 62
v 52 51 50
v 52 52 63
v 52 52 50
v 62 0 63
v 62 0 10
v 62 1 63
v 62 1 50
v 62 1 10
v 62 24 50
v 62 24 10
v 62 42 50
v 62 42 10
v 62 52 50
v 62 52 10
v -63 38 63
v -63 58 63
v -1 38 63
v -1 58 63
v 40 0 63
v 40 1 63
v 40 24 63
v 40 42 63
v 40 52 63
v 52 1 63
v 52 24 63
v 52 42 63
v 52 52 63
v 62 0 63
v 62 1 63
v -63 0 62
v -63 1 62
v -63 15 62
v -63 38 62
v -1 0 62
v -1 1 62
v -1 15 62
v -1 38 62
v -1 0 57
v -1 1 57
v -1 15 57
v -1 38 57
v -1 58 57
v 10 1 57
v 10 15 57
v 10 28 57
v 10 38 57
v 10 58 57
v 30 1 57
v 30 15 57
v 30 28 57
v 30 38 57
v 30 58 57
v 38 15 57
v 38 38 57
v 39 0 57
v 39 1 57
v 39 15 57
v 39 38 57
v 39 58 57
v 40 38 57
v 40 42 57
v 40 52 57
v 40 58 57
v 52 51 50
v 52 52 50
v 61 1 50
v 61 24 50
v 61 42 50
v 61 51 50
v 62 1 50
v 62 24 50
v 62 42 50
v 62 52 50
v 41 1 11
v 41 24 11
v 41 42 11
v 41 51 11
v 61 1 11
v 61 24 11
v 61 42 11
v 61 51 11
v -62 38 -6
v -62 57 -6
v 0 38 -6
v 0 57 -6
v -62 1 -7
v -62 15 -7
v -62 38 -7
v 0 1 -7
v 0 15 -7
v 0 38 -7
v 0 38 -49
v 0 57 -49
v 37 57 -49
v 38 38 -49
v 38 57 -49
v 0 1 -50
v 0 15 -50
v 0 38 -50
v 38 1 -50
v 38 15 -50
v 38 38 -50
v 41 1 62
v 41 24 62
v 41 42 62
v 41 51 62
v 52 1 62
v 52 24 62
v 52 42 62
v 52 51 62
v -62 1 61
v -62 15 61
v -62 38 61
v -2 1 61
v -2 15 61
v -2 38 61
v -62 38 60
v -62 57 60
v -2 38 60
v -2 57 60
v -2 1 56
v -2 15 56
v -2 38 56
v -2 57 56
v 10 1 56
v 10 15 56
v 10 28 56
v 10 38 56
v 10 57 56
v 30 1 56
v 30 15 56
v 30 28 56
v 30 38 56
v 30 57 56
v 37 57 56
v 38 1 56
v 38 15 56
v 38 38 56
v 38 57 56
v 40 0 10
v 40 1 10
v 40 24 10
v 40 38 10
v 40 42 10
v 40 52 10
v 62 0 10
v 62 1 10
v 62 24 10
v 62 42 10
v 62 52 10
v -63 0 -8
v -63 1 -8
v -63 15 -8
v -63 38 -8
v -63 58 -8
v -2 38 -8
v -2 58 -8
v -1 0 -8
v -1 1 -8
v -1 15 -8
v -1 38 -8
v -2 38 -51
v -2 58 -51
v -1 0 -51
v -1 1 -51
v -1 15 -51
v -1 38 -51
v -1 58 -51
v 0 15 -51
v 0 38 -51
v 38 15 -51
v 38 38 -51
v 39 0 -51
v 39 1 -51
v 39 15 -51
v 39 38 -51
v 39 58 -51
v 40 38 -51
v 40 58 -51
v 40 0 63
v 62 0 63
v -63 0 62
v -1 0 62
v -1 0 57
v 39 0 57
v 40 0 10
v 62 0 10
v -63 0 -8
v -1 0 -8
v -1 0 -51
v 39 0 -51
v 10 28 57
v 30 28 57
v 10 28 56
v 30 28 56
v -63 38 63
v -1 38 63
v -63 38 62
v -1 38 62
v -62 38 61
v -2 38 61
v -62 38 60
v -2 38 60
v 39 38 57
v 40 38 57
v 40 38 10
v -62 38 -6
v 0 38 -6
v -62 38 -7
v 0 38 -7
v -2 38 -8
v -1 38 -8
v 0 38 -49
v 38 38 -49
v 0 38 -50
v 38 38 -50
v -2 38 -51
v -1 38 -51
v 39 38 -51
v 40 38 -51
v 41 51 62
v 52 51 62
v 52 51 50
v 61 51 50
v 41 51 11
v 61 51 11
v -62 57 60
v -2 57 60
v -2 57 56
v 10 57 56
v 30 57 56
v 37 57 56
v 38 57 56
v -62 57 -6
v 0 57 -6
v 0 57 -7
v 0 57 -49
v 37 57 -49
v 38 57 -49
v 52 1 63
v 62 1 63
v 41 1 62
v 52 1 62
v -62 1 61
v -2 1 61
v 10 1 57
v 30 1 57
v -2 1 56
v 10 1 56
v 30 1 56
v 38 1 56
v 61 1 50
v 62 1 50
v 41 1 11
v 61 1 11
v -62 1 -7
v 0 1 -7
v 0 1 -50
v 38 1 -50
v 40 52 63
v 52 52 63
v 40 52 57
v 52 52 50
v 62 52 50
v 40 52 10
v 62 52 10
v -63 58 63
v -1 58 63
v -63 58 62
v -1 58 62
v -62 58 61
v -2 58 61
v -1 58 57
v 10 58 57
v 30 58 57
v 39 58 57
v 40 58 57
v -2 58 56
v 10 58 56
v 30 58 56
v 37 58 56
v 38 58 56
v -62 58 -7
v 0 58 -7
v -63 58 -8
v -2 58 -8
v -1 58 -8
v 37 58 -49
v 38 58 -49
v 0 58 -50
v 38 58 -50
v -2 58 -51
v -1 58 -51
v 39 58 -51
v 40 58 -51

# faces
f 3/7/1 2/7/1 1/7/1
f 4/7/1 2/7/1 3/7/1
f 5/8/1 4/8/1 3/8/1
f 6/8/1 4/8/1 5/8/1
f 8/5/1 6/5/1 5/5/1
f 9/5/1 6/5/1 8/5/1
f 10/8/1 8/8/1 7/8/1
f 11/3/1 9/3/1 8/3/1
f 11/8/1 8/8/1 10/8/1
f 12/3/1 9/3/1 11/3/1
f 15/8/1 14/8/1 13/8/1
f 16/8/1 14/8/1 15/8/1
f 17/5/1 16/5/1 15/5/1
f 18/5/1 16/5/1 17/5/1
f 19/5/1 16/5/1 18/5/1
f 22/3/1 19/3/1 18/3/1
f 23/3/1 19/3/1 22/3/1
f 24/8/1 21/8/1 20/8/1
f 25/8/1 21/8/1 24/8/1
f 28/7/1 27/7/1 26/7/1
f 29/7/1 27/7/1 28/7/1
f 30/8/1 29/8/1 28/8/1
f 31/8/1 29/8/1 30/8/1
f 32/1/1 31/1/1 30/1/1
f 33/1/1 31/1/1 32/1/1
f 36/8/1 35/8/1 34/8/1
f 37/8/1 35/8/1 36/8/1
f 38/5/1 37/5/1 36/5/1
f 39/5/1 37/5/1 38/5/1
f 42/8/1 41/8/1 40/8/1
f 43/8/1 41/8/1 42/8/1
f 44/1/1 43/1/1 42/1/1
f 45/1/1 43/1/1 44/1/1
f 46/1/1 43/1/1 45/1/1
f 47/3/1 45/3/1 44/3/1
f 48/3/1 45/3/1 47/3/1
f 51/7/1 50/7/1 49/7/1
f 52/7/1 50/7/1 51/7/1
f 53/7/1 50/7/1 52/7/1
f 54/1/1 52/1/1 51/1/1
f 55/4/1 53/4/1 52/4/1
f 55/1/1 52/1/1 54/1/1
f 56/4/1 53/4/1 55/4/1
f 57/8/1 55/8/1 54/8/1
f 57/8/1 56/8/1 55/8/1
f 58/8/1 56/8/1 57/8/1
f 59/8/1 57/8/1 54/8/1
f 60/8/1 57/8/1 59/8/1
f 61/6/1 60/6/1 59/6/1
f 62/6/1 60/6/1 61/6/1
f 65/4/1 64/4/1 63/4/1
f 66/4/1 64/4/1 65/4/1
f 67/8/1 66/8/1 65/8/1
f 68/8/1 66/8/1 67/8/1
f 69/6/1 68/6/1 67/6/1
f 70/6/1 68/6/1 69/6/1
f 71/8/2 72/8/2 73/8/2
f 73/8/2 72/8/2 74/8/2
f 73/5/2 74/5/2 75/5/2
f 75/5/2 74/5/2 76/5/2
f 76/5/2 74/5/2 77/5/2
f 77/5/2 74/5/2 78/5/2
f 76/3/2 77/3/2 79/3/2
f 79/3/2 77/3/2 80/3/2
f 81/7/2 82/7/2 83/7/2
f 83/7/2 82/7/2 84/7/2
f 83/8/2 84/8/2 85/8/2
f 85/8/2 84/8/2 86/8/2
f 85/5/2 86/5/2 88/5/2
f 88/5/2 86/5/2 89/5/2
f 87/8/2 88/8/2 90/8/2
f 88/3/2 89/3/2 91/3/2
f 90/8/2 88/8/2 91/8/2
f 91/3/2 89/3/2 92/3/2
f 93/8/2 94/8/2 95/8/2
f 95/8/2 94/8/2 96/8/2
f 96/8/2 94/8/2 97/8/2
f 95/5/2 96/5/2 99/5/2
f 96/1/2 97/1/2 100/1/2
f 99/5/2 96/5/2 100/5/2
f 100/1/2 97/1/2 101/1/2
f 101/1/2 97/1/2 102/1/2
f 98/8/2 99/8/2 103/8/2
f 99/3/2 100/3/2 104/3/2
f 103/8/2 99/8/2 104/8/2
f 100/3/2 101/3/2 104/3/2
f 104/3/2 101/3/2 105/3/2
f 106/8/2 107/8/2 108/8/2
f 108/8/2 107/8/2 109/8/2
f 108/5/2 109/5/2 110/5/2
f 110/5/2 109/5/2 111/5/2
f 112/7/2 113/7/2 114/7/2
f 114/7/2 113/7/2 115/7/2
f 114/8/2 115/8/2 116/8/2
f 116/8/2 115/8/2 117/8/2
f 116/1/2 117/1/2 118/1/2
f 118/1/2 117/1/2 119/1/2
f 120/8/2 121/8/2 122/8/2
f 122/8/2 121/8/2 124/8/2
f 123/8/2 124/8/2 125/8/2
f 124/8/2 121/8/2 126/8/2
f 125/8/2 124/8/2 126/8/2
f 127/4/2 128/4/2 129/4/2
f 129/4/2 128/4/2 130/4/2
f 129/8/2 130/8/2 131/8/2
f 131/8/2 130/8/2 132/8/2
f 131/6/2 132/6/2 133/6/2
f 133/6/2 132/6/2 134/6/2
f 135/1/2 136/1/2 137/1/2
f 137/1/2 136/1/2 138/1/2
f 137/8/2 138/8/2 139/8/2
f 139/8/2 138/8/2 140/8/2
f 139/6/2 140/6/2 141/6/2
f 139/6/2 141/6/2 143/6/2
f 141/6/2 142/6/2 143/6/2
f 143/6/2 142/6/2 144/6/2
f 145/7/2 146/7/2 147/7/2
f 147/7/2 146/7/2 148/7/2
f 148/7/2 146/7/2 149/7/2
f 148/4/2 149/4/2 150/4/2
f 150/4/2 149/4/2 151/4/2
f 150/8/2 151/8/2 152/8/2
f 152/8/2 151/8/2 153/8/2
f 152/6/2 153/6/2 154/6/2
f 154/6/2 153/6/2 155/6/2
f 158/8/3 157/8/3 156/8/3
f 159/8/3 157/8/3 158/8/3
f 165/7/3 161/7/3 160/7/3
f 165/1/3 162/1/3 161/1/3
f 166/8/3 163/8/3 162/8/3
f 166/1/3 162/1/3 165/1/3
f 167/6/3 164/6/3 163/6/3
f 167/8/3 163/8/3 166/8/3
f 168/6/3 164/6/3 167/6/3
f 169/7/3 165/7/3 160/7/3
f 170/7/3 165/7/3 169/7/3
f 175/7/3 172/7/3 171/7/3
f 176/8/3 173/8/3 172/8/3
f 176/7/3 172/7/3 175/7/3
f 177/5/3 174/5/3 173/5/3
f 177/8/3 173/8/3 176/8/3
f 178/5/3 174/5/3 177/5/3
f 184/7/3 180/7/3 179/7/3
f 184/8/3 181/8/3 180/8/3
f 185/5/3 182/5/3 181/5/3
f 185/8/3 181/8/3 184/8/3
f 186/5/3 182/5/3 185/5/3
f 187/3/3 183/3/3 182/3/3
f 187/5/3 182/5/3 186/5/3
f 188/3/3 183/3/3 187/3/3
f 189/7/3 184/7/3 179/7/3
f 191/2/3 188/2/3 187/2/3
f 191/2/3 187/2/3 186/2/3
f 192/2/3 188/2/3 191/2/3
f 193/2/3 188/2/3 192/2/3
f 194/8/3 190/8/3 189/8/3
f 194/5/3 191/5/3 190/5/3
f 194/5/3 192/5/3 191/5/3
f 195/3/3 193/3/3 192/3/3
f 195/5/3 192/5/3 194/5/3
f 196/7/3 189/7/3 179/7/3
f 197/8/3 194/8/3 189/8/3
f 197/7/3 189/7/3 196/7/3
f 198/1/3 195/1/3 194/1/3
f 198/8/3 194/8/3 197/8/3
f 199/3/3 193/3/3 195/3/3
f 199/1/3 195/1/3 198/1/3
f 200/3/3 193/3/3 199/3/3
f 201/8/3 200/8/3 199/8/3
f 202/8/3 200/8/3 201/8/3
f 203/8/3 200/8/3 202/8/3
f 204/8/3 200/8/3 203/8/3
f 210/6/3 206/6/3 205/6/3
f 211/4/3 208/4/3 207/4/3
f 212/8/3 209/8/3 208/8/3
f 212/4/3 208/4/3 211/4/3
f 213/6/3 210/6/3 209/6/3
f 213/8/3 209/8/3 212/8/3
f 214/6/3 206/6/3 210/6/3
f 214/6/3 210/6/3 213/6/3
f 219/4/3 216/4/3 215/4/3
f 220/8/3 217/8/3 216/8/3
f 220/4/3 216/4/3 219/4/3
f 221/6/3 218/6/3 217/6/3
f 221/8/3 217/8/3 220/8/3
f 222/6/3 218/6/3 221/6/3
f 225/8/3 224/8/3 223/8/3
f 226/8/3 224/8/3 225/8/3
f 230/8/3 228/8/3 227/8/3
f 231/5/3 229/5/3 228/5/3
f 231/8/3 228/8/3 230/8/3
f 232/5/3 229/5/3 231/5/3
f 235/8/3 234/8/3 233/8/3
f 236/8/3 235/8/3 233/8/3
f 237/8/3 235/8/3 236/8/3
f 241/8/3 239/8/3 238/8/3
f 242/5/3 240/5/3 239/5/3
f 242/8/3 239/8/3 241/8/3
f 243/5/3 240/5/3 242/5/3
f 244/1/4 245/1/4 248/1/4
f 245/8/4 246/8/4 249/8/4
f 248/1/4 245/1/4 249/1/4
f 246/6/4 247/6/4 250/6/4
f 249/8/4 246/8/4 250/8/4
f 250/6/4 247/6/4 251/6/4
f 252/8/4 253/8/4 255/8/4
f 253/5/4 254/5/4 256/5/4
f 255/8/4 253/8/4 256/8/4
f 256/5/4 254/5/4 257/5/4
f 258/8/4 259/8/4 260/8/4
f 260/8/4 259/8/4 261/8/4
f 262/8/4 263/8/4 266/8/4
f 263/5/4 264/5/4 267/5/4
f 266/8/4 263/8/4 267/8/4
f 267/5/4 264/5/4 268/5/4
f 264/3/4 265/3/4 269/3/4
f 268/5/4 264/5/4 269/5/4
f 269/3/4 265/3/4 270/3/4
f 269/2/4 270/2/4 273/2/4
f 268/2/4 269/2/4 273/2/4
f 273/2/4 270/2/4 274/2/4
f 274/2/4 270/2/4 275/2/4
f 274/3/4 275/3/4 276/3/4
f 271/8/4 272/8/4 277/8/4
f 272/5/4 273/5/4 278/5/4
f 277/8/4 272/8/4 278/8/4
f 273/5/4 274/5/4 278/5/4
f 274/3/4 276/3/4 279/3/4
f 278/5/4 274/5/4 279/5/4
f 279/3/4 276/3/4 280/3/4
f 281/7/4 282/7/4 287/7/4
f 282/4/4 283/4/4 288/4/4
f 287/7/4 282/7/4 288/7/4
f 283/8/4 284/8/4 289/8/4
f 288/4/4 283/4/4 289/4/4
f 284/8/4 285/8/4 289/8/4
f 285/6/4 286/6/4 290/6/4
f 289/8/4 285/8/4 290/8/4
f 290/6/4 286/6/4 291/6/4
f 294/5/4 295/5/4 297/5/4
f 295/3/4 296/3/4 297/3/4
f 297/3/4 296/3/4 298/3/4
f 292/7/4 293/7/4 299/7/4
f 293/8/4 294/8/4 300/8/4
f 299/7/4 293/7/4 300/7/4
f 294/5/4 297/5/4 301/5/4
f 300/8/4 294/8/4 301/8/4
f 301/5/4 297/5/4 302/5/4
f 303/8/4 304/8/4 308/8/4
f 308/8/4 304/8/4 309/8/4
f 306/8/4 307/8/4 310/8/4
f 307/1/4 308/1/4 310/1/4
f 308/3/4 309/3/4 311/3/4
f 310/1/4 308/1/4 311/1/4
f 306/8/4 310/8/4 312/8/4
f 310/5/4 311/5/4 312/5/4
f 311/3/4 309/3/4 313/3/4
f 312/5/4 311/5/4 313/5/4
f 305/7/4 306/7/4 314/7/4
f 306/8/4 312/8/4 315/8/4
f 314/7/4 306/7/4 315/7/4
f 312/1/4 313/1/4 316/1/4
f 315/8/4 312/8/4 316/8/4
f 313/3/4 309/3/4 317/3/4
f 316/1/4 313/1/4 317/1/4
f 317/3/4 309/3/4 318/3/4
f 317/8/4 318/8/4 319/8/4
f 319/8/4 318/8/4 320/8/4
f 325/7/5 324/7/5 323/7/5
f 327/7/5 322/7/5 321/7/5
f 328/7/5 322/7/5 327/7/5
f 329/7/5 326/7/5 325/7/5
f 329/7/5 325/7/5 323/7/5
f 330/7/5 326/7/5 329/7/5
f 331/7/5 326/7/5 330/7/5
f 332/7/5 326/7/5 331/7/5
f 335/2/5 334/2/5 333/2/5
f 336/2/5 334/2/5 335/2/5
f 339/8/5 338/8/5 337/8/5
f 340/8/5 338/8/5 339/8/5
f 343/8/5 342/8/5 341/8/5
f 344/8/5 342/8/5 343/8/5
f 347/8/5 346/8/5 345/8/5
f 350/8/5 349/8/5 348/8/5
f 351/8/5 349/8/5 350/8/5
f 356/8/5 355/8/5 354/8/5
f 357/8/5 355/8/5 356/8/5
f 358/8/5 353/8/5 352/8/5
f 359/8/5 353/8/5 358/8/5
f 360/8/5 347/8/5 345/8/5
f 361/8/5 347/8/5 360/8/5
f 364/6/5 363/6/5 362/6/5
f 366/6/5 364/6/5 362/6/5
f 366/6/5 365/6/5 364/6/5
f 367/6/5 365/6/5 366/6/5
f 370/8/5 369/8/5 368/8/5
f 375/8/5 370/8/5 368/8/5
f 375/8/5 371/8/5 370/8/5
f 375/8/5 373/8/5 372/8/5
f 375/8/5 372/8/5 371/8/5
f 376/8/5 373/8/5 375/8/5
f 377/8/5 373/8/5 376/8/5
f 378/8/5 373/8/5 377/8/5
f 379/6/5 374/6/5 373/6/5
f 379/8/5 373/8/5 378/8/5
f 380/6/5 374/6/5 379/6/5
f 381/7/6 382/7/6 384/7/6
f 385/7/6 386/7/6 389/7/6
f 387/7/6 388/7/6 390/7/6
f 390/7/6 388/7/6 391/7/6
f 384/7/6 382/7/6 393/7/6
f 383/7/6 384/7/6 393/7/6
f 393/7/6 382/7/6 394/7/6
f 383/7/6 393/7/6 395/7/6
f 395/7/6 393/7/6 396/7/6
f 391/7/6 392/7/6 397/7/6
f 390/7/6 391/7/6 397/7/6
f 385/7/6 389/7/6 397/7/6
f 389/7/6 390/7/6 397/7/6
f 397/7/6 392/7/6 398/7/6
f 398/7/6 392/7/6 399/7/6
f 399/7/6 392/7/6 400/7/6
f 401/6/6 402/6/6 403/6/6
f 403/6/6 402/6/6 404/6/6
f 403/6/6 404/6/6 406/6/6
f 404/6/6 405/6/6 406/6/6
f 406/6/6 405/6/6 407/6/6
f 408/8/6 409/8/6 410/8/6
f 410/8/6 409/8/6 411/8/6
f 410/3/6 411/3/6 412/3/6
f 412/3/6 411/3/6 413/3/6
f 413/3/6 411/3/6 414/3/6
f 413/3/6 414/3/6 419/3/6
f 412/8/6 413/8/6 419/8/6
f 414/3/6 415/3/6 419/3/6
f 415/2/6 416/2/6 420/2/6
f 419/3/6 415/3/6 420/3/6
f 416/3/6 417/3/6 421/3/6
f 420/2/6 416/2/6 421/2/6
f 421/3/6 417/3/6 422/3/6
f 422/3/6 417/3/6 423/3/6
f 410/3/6 412/3/6 424/3/6
f 419/8/6 420/8/6 424/8/6
f 412/8/6 419/8/6 424/8/6
f 421/8/6 422/8/6 424/8/6
f 420/8/6 421/8/6 424/8/6
f 424/8/6 422/8/6 425/8/6
f 410/3/6 424/3/6 426/3/6
f 424/3/6 425/3/6 426/3/6
f 426/3/6 425/3/6 427/3/6
f 427/3/6 425/3/6 428/3/6
f 422/6/6 423/6/6 429/6/6
f 425/8/6 422/8/6 429/8/6
f 423/3/6 417/3/6 430/3/6
f 429/6/6 423/6/6 430/6/6
f 425/8/6 429/8/6 431/8/6
f 428/3/6 425/3/6 431/3/6
f 429/8/6 430/8/6 431/8/6
f 430/3/6 417/3/6 432/3/6
f 431/8/6 430/8/6 432/8/6
f 427/8/6 428/8/6 433/8/6
f 428/3/6 431/3/6 434/3/6
f 433/8/6 428/8/6 434/8/6
f 431/3/6 432/3/6 434/3/6
f 417/8/6 418/8/6 435/8/6
f 434/3/6 432/3/6 435/3/6
f 432/3/6 417/3/6 435/3/6
f 435/8/6 418/8/6 436/8/6
