# MagicaVoxel @ Ephtracy

# material
mtllib School'slight.mtl
usemtl palette

# normals
vn -1 0 0
vn 1 0 0
vn 0 0 1
vn 0 0 -1
vn 0 -1 0
vn 0 1 0

# texcoords
vt 0.376953 0.5
vt 0.958984 0.5
vt 0.986328 0.5

# verts
v -45 61 43
v -45 61 42
v -45 70 43
v -45 70 42
v -42 59 43
v -42 59 42
v -42 61 43
v -42 61 42
v -4 26 63
v -4 26 55
v -4 27 61
v -4 27 57
v -4 28 62
v -4 28 61
v -4 28 57
v -4 28 56
v -4 29 62
v -4 29 61
v -4 29 57
v -4 29 56
v -4 30 61
v -4 30 60
v -4 30 58
v -4 30 57
v -4 32 61
v -4 32 60
v -4 32 58
v -4 32 57
v -4 34 63
v -4 34 55
v -24 59 43
v -24 59 42
v -24 61 43
v -24 61 42
v -22 61 43
v -22 61 42
v -22 70 43
v -22 70 42
v -1 26 63
v -1 26 55
v -1 27 61
v -1 27 57
v -1 28 62
v -1 28 61
v -1 28 57
v -1 28 56
v -1 29 62
v -1 29 61
v -1 29 57
v -1 29 56
v -1 30 61
v -1 30 60
v -1 30 58
v -1 30 57
v -1 32 61
v -1 32 60
v -1 32 58
v -1 32 57
v -1 34 63
v -1 34 55
v -4 26 63
v -4 34 63
v -3 26 63
v -3 34 63
v -2 26 63
v -2 34 63
v -1 26 63
v -1 34 63
v -45 61 43
v -45 70 43
v -42 59 43
v -42 61 43
v -42 62 43
v -42 67 43
v -41 62 43
v -41 66 43
v -40 65 43
v -40 66 43
v -40 67 43
v -39 64 43
v -39 65 43
v -39 66 43
v -38 63 43
v -38 64 43
v -38 65 43
v -37 62 43
v -37 63 43
v -37 64 43
v -37 67 43
v -36 62 43
v -36 67 43
v -35 66 43
v -35 67 43
v -34 65 43
v -34 66 43
v -34 67 43
v -33 62 43
v -33 65 43
v -33 66 43
v -32 62 43
v -32 65 43
v -32 66 43
v -31 65 43
v -31 66 43
v -31 67 43
v -30 66 43
v -30 67 43
v -29 63 43
v -29 67 43
v -28 62 43
v -28 63 43
v -28 67 43
v -25 62 43
v -25 63 43
v -25 67 43
v -24 59 43
v -24 61 43
v -24 63 43
v -24 67 43
v -22 61 43
v -22 70 43
v -4 26 55
v -4 34 55
v -3 26 55
v -3 34 55
v -2 26 55
v -2 34 55
v -1 26 55
v -1 34 55
v -45 61 42
v -45 70 42
v -42 59 42
v -42 61 42
v -42 62 42
v -42 67 42
v -41 62 42
v -41 66 42
v -40 65 42
v -40 66 42
v -40 67 42
v -39 64 42
v -39 65 42
v -39 66 42
v -38 63 42
v -38 64 42
v -38 65 42
v -37 62 42
v -37 63 42
v -37 64 42
v -37 67 42
v -36 62 42
v -36 67 42
v -35 66 42
v -35 67 42
v -34 65 42
v -34 66 42
v -34 67 42
v -33 62 42
v -33 65 42
v -33 66 42
v -32 62 42
v -32 65 42
v -32 66 42
v -31 65 42
v -31 66 42
v -31 67 42
v -30 66 42
v -30 67 42
v -29 63 42
v -29 67 42
v -28 62 42
v -28 63 42
v -28 67 42
v -25 62 42
v -25 63 42
v -25 67 42
v -24 59 42
v -24 61 42
v -24 63 42
v -24 67 42
v -22 61 42
v -22 70 42
v -4 26 63
v -3 26 63
v -2 26 63
v -1 26 63
v -4 26 55
v -3 26 55
v -2 26 55
v -1 26 55
v -42 59 43
v -24 59 43
v -42 59 42
v -24 59 42
v -45 61 43
v -42 61 43
v -24 61 43
v -22 61 43
v -45 61 42
v -42 61 42
v -24 61 42
v -22 61 42
v -4 34 63
v -3 34 63
v -2 34 63
v -1 34 63
v -4 34 55
v -3 34 55
v -2 34 55
v -1 34 55
v -45 70 43
v -22 70 43
v -45 70 42
v -22 70 42

# faces
f 3/1/1 2/1/1 1/1/1
f 4/1/1 2/1/1 3/1/1
f 7/1/1 6/1/1 5/1/1
f 8/1/1 6/1/1 7/1/1
f 11/1/1 10/1/1 9/1/1
f 12/1/1 10/1/1 11/1/1
f 13/1/1 11/1/1 9/1/1
f 14/2/1 12/2/1 11/2/1
f 14/1/1 11/1/1 13/1/1
f 15/1/1 10/1/1 12/1/1
f 15/2/1 12/2/1 14/2/1
f 16/1/1 10/1/1 15/1/1
f 17/2/1 14/2/1 13/2/1
f 17/1/1 13/1/1 9/1/1
f 18/1/1 15/1/1 14/1/1
f 18/2/1 14/2/1 17/2/1
f 19/2/1 16/2/1 15/2/1
f 19/1/1 15/1/1 18/1/1
f 20/1/1 10/1/1 16/1/1
f 20/2/1 16/2/1 19/2/1
f 21/1/1 19/1/1 18/1/1
f 21/1/1 18/1/1 17/1/1
f 21/1/1 20/1/1 19/1/1
f 22/1/1 20/1/1 21/1/1
f 23/1/1 20/1/1 22/1/1
f 24/1/1 20/1/1 23/1/1
f 25/1/1 21/1/1 17/1/1
f 25/2/1 22/2/1 21/2/1
f 26/1/1 23/1/1 22/1/1
f 26/2/1 22/2/1 25/2/1
f 27/2/1 24/2/1 23/2/1
f 27/1/1 23/1/1 26/1/1
f 28/1/1 20/1/1 24/1/1
f 28/2/1 24/2/1 27/2/1
f 29/1/1 17/1/1 9/1/1
f 29/1/1 27/1/1 26/1/1
f 29/1/1 28/1/1 27/1/1
f 29/1/1 25/1/1 17/1/1
f 29/1/1 26/1/1 25/1/1
f 30/1/1 10/1/1 20/1/1
f 30/1/1 28/1/1 29/1/1
f 30/1/1 20/1/1 28/1/1
f 31/1/2 32/1/2 33/1/2
f 33/1/2 32/1/2 34/1/2
f 35/1/2 36/1/2 37/1/2
f 37/1/2 36/1/2 38/1/2
f 39/1/2 40/1/2 41/1/2
f 41/1/2 40/1/2 42/1/2
f 39/1/2 41/1/2 43/1/2
f 41/2/2 42/2/2 44/2/2
f 43/1/2 41/1/2 44/1/2
f 42/1/2 40/1/2 45/1/2
f 44/2/2 42/2/2 45/2/2
f 45/1/2 40/1/2 46/1/2
f 43/2/2 44/2/2 47/2/2
f 39/1/2 43/1/2 47/1/2
f 44/1/2 45/1/2 48/1/2
f 47/2/2 44/2/2 48/2/2
f 45/2/2 46/2/2 49/2/2
f 48/1/2 45/1/2 49/1/2
f 46/1/2 40/1/2 50/1/2
f 49/2/2 46/2/2 50/2/2
f 48/1/2 49/1/2 51/1/2
f 47/1/2 48/1/2 51/1/2
f 49/1/2 50/1/2 51/1/2
f 51/1/2 50/1/2 52/1/2
f 52/1/2 50/1/2 53/1/2
f 53/1/2 50/1/2 54/1/2
f 47/1/2 51/1/2 55/1/2
f 51/2/2 52/2/2 55/2/2
f 52/1/2 53/1/2 56/1/2
f 55/2/2 52/2/2 56/2/2
f 53/2/2 54/2/2 57/2/2
f 56/1/2 53/1/2 57/1/2
f 54/1/2 50/1/2 58/1/2
f 57/2/2 54/2/2 58/2/2
f 39/1/2 47/1/2 59/1/2
f 56/1/2 57/1/2 59/1/2
f 57/1/2 58/1/2 59/1/2
f 47/1/2 55/1/2 59/1/2
f 55/1/2 56/1/2 59/1/2
f 50/1/2 40/1/2 60/1/2
f 59/1/2 58/1/2 60/1/2
f 58/1/2 50/1/2 60/1/2
f 63/1/3 62/1/3 61/1/3
f 64/1/3 62/1/3 63/1/3
f 65/3/3 64/3/3 63/3/3
f 66/3/3 64/3/3 65/3/3
f 67/1/3 66/1/3 65/1/3
f 68/1/3 66/1/3 67/1/3
f 72/1/3 70/1/3 69/1/3
f 73/1/3 70/1/3 72/1/3
f 74/1/3 70/1/3 73/1/3
f 75/1/3 72/1/3 71/1/3
f 75/1/3 73/1/3 72/1/3
f 75/2/3 74/2/3 73/2/3
f 76/2/3 74/2/3 75/2/3
f 77/1/3 76/1/3 75/1/3
f 78/2/3 74/2/3 76/2/3
f 78/1/3 76/1/3 77/1/3
f 79/1/3 70/1/3 74/1/3
f 79/2/3 74/2/3 78/2/3
f 80/1/3 77/1/3 75/1/3
f 81/2/3 78/2/3 77/2/3
f 81/1/3 77/1/3 80/1/3
f 82/1/3 79/1/3 78/1/3
f 82/2/3 78/2/3 81/2/3
f 83/1/3 80/1/3 75/1/3
f 84/2/3 81/2/3 80/2/3
f 84/1/3 80/1/3 83/1/3
f 85/1/3 82/1/3 81/1/3
f 85/2/3 81/2/3 84/2/3
f 86/1/3 75/1/3 71/1/3
f 86/1/3 83/1/3 75/1/3
f 87/2/3 84/2/3 83/2/3
f 87/1/3 83/1/3 86/1/3
f 88/1/3 85/1/3 84/1/3
f 88/2/3 84/2/3 87/2/3
f 89/1/3 79/1/3 82/1/3
f 89/1/3 85/1/3 88/1/3
f 89/1/3 82/1/3 85/1/3
f 89/1/3 70/1/3 79/1/3
f 90/2/3 88/2/3 87/2/3
f 90/1/3 86/1/3 71/1/3
f 90/2/3 89/2/3 88/2/3
f 90/2/3 87/2/3 86/2/3
f 91/1/3 70/1/3 89/1/3
f 91/2/3 89/2/3 90/2/3
f 92/1/3 91/1/3 90/1/3
f 93/1/3 70/1/3 91/1/3
f 93/1/3 91/1/3 92/1/3
f 94/1/3 92/1/3 90/1/3
f 95/2/3 93/2/3 92/2/3
f 95/1/3 92/1/3 94/1/3
f 96/1/3 70/1/3 93/1/3
f 96/2/3 93/2/3 95/2/3
f 97/1/3 90/1/3 71/1/3
f 97/1/3 94/1/3 90/1/3
f 98/2/3 95/2/3 94/2/3
f 98/1/3 94/1/3 97/1/3
f 99/1/3 96/1/3 95/1/3
f 99/2/3 95/2/3 98/2/3
f 100/1/3 97/1/3 71/1/3
f 100/2/3 98/2/3 97/2/3
f 101/1/3 99/1/3 98/1/3
f 101/2/3 98/2/3 100/2/3
f 102/1/3 96/1/3 99/1/3
f 102/1/3 99/1/3 101/1/3
f 103/1/3 101/1/3 100/1/3
f 103/2/3 102/2/3 101/2/3
f 104/1/3 96/1/3 102/1/3
f 104/2/3 102/2/3 103/2/3
f 105/1/3 70/1/3 96/1/3
f 105/1/3 96/1/3 104/1/3
f 106/1/3 104/1/3 103/1/3
f 106/2/3 105/2/3 104/2/3
f 107/1/3 70/1/3 105/1/3
f 107/2/3 105/2/3 106/2/3
f 108/1/3 106/1/3 103/1/3
f 108/1/3 103/1/3 100/1/3
f 108/1/3 107/1/3 106/1/3
f 109/1/3 70/1/3 107/1/3
f 109/1/3 107/1/3 108/1/3
f 110/1/3 108/1/3 100/1/3
f 110/1/3 100/1/3 71/1/3
f 111/2/3 109/2/3 108/2/3
f 111/1/3 108/1/3 110/1/3
f 112/1/3 70/1/3 109/1/3
f 112/2/3 109/2/3 111/2/3
f 113/2/3 111/2/3 110/2/3
f 113/1/3 110/1/3 71/1/3
f 114/1/3 112/1/3 111/1/3
f 114/2/3 111/2/3 113/2/3
f 115/1/3 70/1/3 112/1/3
f 115/1/3 112/1/3 114/1/3
f 116/1/3 114/1/3 113/1/3
f 116/1/3 113/1/3 71/1/3
f 117/1/3 114/1/3 116/1/3
f 118/2/3 115/2/3 114/2/3
f 118/1/3 114/1/3 117/1/3
f 119/1/3 70/1/3 115/1/3
f 119/2/3 115/2/3 118/2/3
f 120/1/3 118/1/3 117/1/3
f 120/1/3 119/1/3 118/1/3
f 121/1/3 70/1/3 119/1/3
f 121/1/3 119/1/3 120/1/3
f 122/1/4 123/1/4 124/1/4
f 124/1/4 123/1/4 125/1/4
f 124/3/4 125/3/4 126/3/4
f 126/3/4 125/3/4 127/3/4
f 126/1/4 127/1/4 128/1/4
f 128/1/4 127/1/4 129/1/4
f 130/1/4 131/1/4 133/1/4
f 133/1/4 131/1/4 134/1/4
f 134/1/4 131/1/4 135/1/4
f 132/1/4 133/1/4 136/1/4
f 133/1/4 134/1/4 136/1/4
f 134/2/4 135/2/4 136/2/4
f 136/2/4 135/2/4 137/2/4
f 136/1/4 137/1/4 138/1/4
f 137/2/4 135/2/4 139/2/4
f 138/1/4 137/1/4 139/1/4
f 135/1/4 131/1/4 140/1/4
f 139/2/4 135/2/4 140/2/4
f 136/1/4 138/1/4 141/1/4
f 138/2/4 139/2/4 142/2/4
f 141/1/4 138/1/4 142/1/4
f 139/1/4 140/1/4 143/1/4
f 142/2/4 139/2/4 143/2/4
f 136/1/4 141/1/4 144/1/4
f 141/2/4 142/2/4 145/2/4
f 144/1/4 141/1/4 145/1/4
f 142/1/4 143/1/4 146/1/4
f 145/2/4 142/2/4 146/2/4
f 132/1/4 136/1/4 147/1/4
f 136/1/4 144/1/4 147/1/4
f 144/2/4 145/2/4 148/2/4
f 147/1/4 144/1/4 148/1/4
f 145/1/4 146/1/4 149/1/4
f 148/2/4 145/2/4 149/2/4
f 143/1/4 140/1/4 150/1/4
f 149/1/4 146/1/4 150/1/4
f 146/1/4 143/1/4 150/1/4
f 140/1/4 131/1/4 150/1/4
f 148/2/4 149/2/4 151/2/4
f 132/1/4 147/1/4 151/1/4
f 149/2/4 150/2/4 151/2/4
f 147/2/4 148/2/4 151/2/4
f 150/1/4 131/1/4 152/1/4
f 151/2/4 150/2/4 152/2/4
f 151/1/4 152/1/4 153/1/4
f 152/1/4 131/1/4 154/1/4
f 153/1/4 152/1/4 154/1/4
f 151/1/4 153/1/4 155/1/4
f 153/2/4 154/2/4 156/2/4
f 155/1/4 153/1/4 156/1/4
f 154/1/4 131/1/4 157/1/4
f 156/2/4 154/2/4 157/2/4
f 132/1/4 151/1/4 158/1/4
f 151/1/4 155/1/4 158/1/4
f 155/2/4 156/2/4 159/2/4
f 158/1/4 155/1/4 159/1/4
f 156/1/4 157/1/4 160/1/4
f 159/2/4 156/2/4 160/2/4
f 132/1/4 158/1/4 161/1/4
f 158/2/4 159/2/4 161/2/4
f 159/1/4 160/1/4 162/1/4
f 161/2/4 159/2/4 162/2/4
f 160/1/4 157/1/4 163/1/4
f 162/1/4 160/1/4 163/1/4
f 161/1/4 162/1/4 164/1/4
f 162/2/4 163/2/4 164/2/4
f 163/1/4 157/1/4 165/1/4
f 164/2/4 163/2/4 165/2/4
f 157/1/4 131/1/4 166/1/4
f 165/1/4 157/1/4 166/1/4
f 164/1/4 165/1/4 167/1/4
f 165/2/4 166/2/4 167/2/4
f 166/1/4 131/1/4 168/1/4
f 167/2/4 166/2/4 168/2/4
f 164/1/4 167/1/4 169/1/4
f 161/1/4 164/1/4 169/1/4
f 167/1/4 168/1/4 169/1/4
f 168/1/4 131/1/4 170/1/4
f 169/1/4 168/1/4 170/1/4
f 161/1/4 169/1/4 171/1/4
f 132/1/4 161/1/4 171/1/4
f 169/2/4 170/2/4 172/2/4
f 171/1/4 169/1/4 172/1/4
f 170/1/4 131/1/4 173/1/4
f 172/2/4 170/2/4 173/2/4
f 171/2/4 172/2/4 174/2/4
f 132/1/4 171/1/4 174/1/4
f 172/1/4 173/1/4 175/1/4
f 174/2/4 172/2/4 175/2/4
f 173/1/4 131/1/4 176/1/4
f 175/1/4 173/1/4 176/1/4
f 174/1/4 175/1/4 177/1/4
f 132/1/4 174/1/4 177/1/4
f 177/1/4 175/1/4 178/1/4
f 175/2/4 176/2/4 179/2/4
f 178/1/4 175/1/4 179/1/4
f 176/1/4 131/1/4 180/1/4
f 179/2/4 176/2/4 180/2/4
f 178/1/4 179/1/4 181/1/4
f 179/1/4 180/1/4 181/1/4
f 180/1/4 131/1/4 182/1/4
f 181/1/4 180/1/4 182/1/4
f 187/1/5 184/1/5 183/1/5
f 188/3/5 185/3/5 184/3/5
f 188/1/5 184/1/5 187/1/5
f 189/1/5 186/1/5 185/1/5
f 189/3/5 185/3/5 188/3/5
f 190/1/5 186/1/5 189/1/5
f 193/1/5 192/1/5 191/1/5
f 194/1/5 192/1/5 193/1/5
f 199/1/5 196/1/5 195/1/5
f 200/1/5 196/1/5 199/1/5
f 201/1/5 198/1/5 197/1/5
f 202/1/5 198/1/5 201/1/5
f 203/1/6 204/1/6 207/1/6
f 204/3/6 205/3/6 208/3/6
f 207/1/6 204/1/6 208/1/6
f 205/1/6 206/1/6 209/1/6
f 208/3/6 205/3/6 209/3/6
f 209/1/6 206/1/6 210/1/6
f 211/1/6 212/1/6 213/1/6
f 213/1/6 212/1/6 214/1/6
