# MagicaVoxel @ Ephtracy

# material
mtllib bed'sstuff.mtl
usemtl palette

# normals
vn -1 0 0
vn 1 0 0
vn 0 0 1
vn 0 0 -1
vn 0 -1 0
vn 0 1 0

# texcoords
vt 0.396484 0.5
vt 0.779297 0.5
vt 0.958984 0.5
vt 0.966797 0.5

# verts
v -50 5 25
v -50 5 -33
v -50 6 25
v -50 6 -33
v -50 14 25
v -50 14 -33
v -45 14 9
v -45 14 -17
v -45 15 9
v -45 15 -17
v -22 9 26
v -22 9 25
v -22 9 -33
v -22 9 -34
v -22 14 26
v -22 14 25
v -22 14 -33
v -22 14 -34
v -22 15 25
v -22 15 -33
v -28 14 9
v -28 14 -17
v -28 15 9
v -28 15 -17
v 34 9 26
v 34 9 25
v 34 9 -33
v 34 9 -34
v 34 14 26
v 34 14 25
v 34 14 -33
v 34 14 -34
v 34 15 25
v 34 15 -33
v 37 11 19
v 37 11 -27
v 37 14 19
v 37 14 -27
v 38 5 25
v 38 5 -33
v 38 11 19
v 38 11 -27
v 38 14 25
v 38 14 19
v 38 14 -27
v 38 14 -33
v -22 9 26
v -22 14 26
v 34 9 26
v 34 14 26
v -50 5 25
v -50 6 25
v -50 14 25
v -22 9 25
v -22 14 25
v -22 15 25
v -11 14 25
v -11 15 25
v 34 9 25
v 34 14 25
v 34 15 25
v 37 6 25
v 37 14 25
v 38 5 25
v 38 14 25
v -45 14 9
v -45 15 9
v -28 14 9
v -28 15 9
v 37 11 -27
v 37 14 -27
v 38 11 -27
v 38 14 -27
v 37 11 19
v 37 14 19
v 38 11 19
v 38 14 19
v -45 14 -17
v -45 15 -17
v -28 14 -17
v -28 15 -17
v -50 5 -33
v -50 6 -33
v -50 14 -33
v -22 9 -33
v -22 14 -33
v -22 15 -33
v -11 14 -33
v -11 15 -33
v 34 9 -33
v 34 14 -33
v 34 15 -33
v 37 6 -33
v 37 14 -33
v 38 5 -33
v 38 14 -33
v -22 9 -34
v -22 14 -34
v 34 9 -34
v 34 14 -34
v -50 5 25
v 38 5 25
v -50 5 -33
v 38 5 -33
v -22 9 26
v 34 9 26
v -22 9 25
v 34 9 25
v -22 9 -33
v 34 9 -33
v -22 9 -34
v 34 9 -34
v 37 11 19
v 38 11 19
v 37 11 -27
v 38 11 -27
v -22 14 26
v 34 14 26
v -50 14 25
v -22 14 25
v -11 14 25
v 34 14 25
v 37 14 25
v 38 14 25
v 37 14 19
v 38 14 19
v -45 14 9
v -28 14 9
v -45 14 -17
v -28 14 -17
v 37 14 -27
v 38 14 -27
v -50 14 -33
v -22 14 -33
v -11 14 -33
v 34 14 -33
v 37 14 -33
v 38 14 -33
v -22 14 -34
v 34 14 -34
v -22 15 25
v -11 15 25
v 34 15 25
v -45 15 9
v -28 15 9
v -45 15 -17
v -28 15 -17
v -22 15 -33
v -11 15 -33
v 34 15 -33

# faces
f 3/1/1 2/1/1 1/1/1
f 4/1/1 2/1/1 3/1/1
f 5/4/1 4/4/1 3/4/1
f 6/4/1 4/4/1 5/4/1
f 9/3/1 8/3/1 7/3/1
f 10/3/1 8/3/1 9/3/1
f 15/2/1 12/2/1 11/2/1
f 16/2/1 12/2/1 15/2/1
f 17/2/1 14/2/1 13/2/1
f 18/2/1 14/2/1 17/2/1
f 19/3/1 17/3/1 16/3/1
f 20/3/1 17/3/1 19/3/1
f 21/3/2 22/3/2 23/3/2
f 23/3/2 22/3/2 24/3/2
f 25/2/2 26/2/2 29/2/2
f 29/2/2 26/2/2 30/2/2
f 27/2/2 28/2/2 31/2/2
f 31/2/2 28/2/2 32/2/2
f 30/2/2 31/2/2 33/2/2
f 33/2/2 31/2/2 34/2/2
f 35/4/2 36/4/2 37/4/2
f 37/4/2 36/4/2 38/4/2
f 39/1/2 40/1/2 41/1/2
f 41/1/2 40/1/2 42/1/2
f 39/1/2 41/1/2 43/1/2
f 43/1/2 41/1/2 44/1/2
f 42/1/2 40/1/2 45/1/2
f 45/1/2 40/1/2 46/1/2
f 49/2/3 48/2/3 47/2/3
f 50/2/3 48/2/3 49/2/3
f 54/4/3 53/4/3 52/4/3
f 55/4/3 53/4/3 54/4/3
f 57/3/3 56/3/3 55/3/3
f 58/3/3 56/3/3 57/3/3
f 59/4/3 54/4/3 52/4/3
f 60/2/3 58/2/3 57/2/3
f 61/2/3 58/2/3 60/2/3
f 62/1/3 52/1/3 51/1/3
f 62/4/3 59/4/3 52/4/3
f 62/4/3 60/4/3 59/4/3
f 63/4/3 60/4/3 62/4/3
f 64/1/3 62/1/3 51/1/3
f 64/1/3 63/1/3 62/1/3
f 65/1/3 63/1/3 64/1/3
f 68/3/3 67/3/3 66/3/3
f 69/3/3 67/3/3 68/3/3
f 72/1/3 71/1/3 70/1/3
f 73/1/3 71/1/3 72/1/3
f 74/1/4 75/1/4 76/1/4
f 76/1/4 75/1/4 77/1/4
f 78/3/4 79/3/4 80/3/4
f 80/3/4 79/3/4 81/3/4
f 83/4/4 84/4/4 85/4/4
f 85/4/4 84/4/4 86/4/4
f 86/3/4 87/3/4 88/3/4
f 88/3/4 87/3/4 89/3/4
f 83/4/4 85/4/4 90/4/4
f 88/2/4 89/2/4 91/2/4
f 91/2/4 89/2/4 92/2/4
f 82/1/4 83/1/4 93/1/4
f 83/4/4 90/4/4 93/4/4
f 90/4/4 91/4/4 93/4/4
f 93/4/4 91/4/4 94/4/4
f 82/1/4 93/1/4 95/1/4
f 93/1/4 94/1/4 95/1/4
f 95/1/4 94/1/4 96/1/4
f 97/2/4 98/2/4 99/2/4
f 99/2/4 98/2/4 100/2/4
f 103/1/5 102/1/5 101/1/5
f 104/1/5 102/1/5 103/1/5
f 107/2/5 106/2/5 105/2/5
f 108/2/5 106/2/5 107/2/5
f 111/2/5 110/2/5 109/2/5
f 112/2/5 110/2/5 111/2/5
f 113/1/6 114/1/6 115/1/6
f 115/1/6 114/1/6 116/1/6
f 117/2/6 118/2/6 120/2/6
f 120/2/6 118/2/6 121/2/6
f 121/2/6 118/2/6 122/2/6
f 123/1/6 124/1/6 125/1/6
f 122/4/6 123/4/6 125/4/6
f 125/1/6 124/1/6 126/1/6
f 119/4/6 120/4/6 127/4/6
f 127/4/6 120/4/6 128/4/6
f 119/4/6 127/4/6 129/4/6
f 128/4/6 120/4/6 130/4/6
f 122/4/6 125/4/6 131/4/6
f 129/4/6 130/4/6 133/4/6
f 119/4/6 129/4/6 133/4/6
f 130/4/6 120/4/6 134/4/6
f 133/4/6 130/4/6 134/4/6
f 122/4/6 131/4/6 136/4/6
f 131/1/6 132/1/6 137/1/6
f 136/4/6 131/4/6 137/4/6
f 137/1/6 132/1/6 138/1/6
f 135/2/6 136/2/6 139/2/6
f 134/2/6 135/2/6 139/2/6
f 139/2/6 136/2/6 140/2/6
f 144/3/6 145/3/6 146/3/6
f 146/3/6 145/3/6 147/3/6
f 141/3/6 142/3/6 148/3/6
f 142/2/6 143/2/6 149/2/6
f 148/3/6 142/3/6 149/3/6
f 149/2/6 143/2/6 150/2/6
